<?xml version="1.0" encoding="UTF-8" standalone="no"?>
<svg
   version="1.1"
   width="512"
   height="512"
   id="svg6"
   sodipodi:docname="bookmark-orange.svg"
   inkscape:version="1.1.2 (0a00cf5339, 2022-02-04)"
   xmlns:inkscape="http://www.inkscape.org/namespaces/inkscape"
   xmlns:sodipodi="http://sodipodi.sourceforge.net/DTD/sodipodi-0.dtd"
   xmlns="http://www.w3.org/2000/svg"
   xmlns:svg="http://www.w3.org/2000/svg">
  <defs
     id="defs10" />
  <sodipodi:namedview
     id="namedview8"
     pagecolor="#505050"
     bordercolor="#eeeeee"
     borderopacity="1"
     inkscape:pageshadow="0"
     inkscape:pageopacity="0"
     inkscape:pagecheckerboard="0"
     showgrid="false"
     inkscape:zoom="1.5273438"
     inkscape:cx="256"
     inkscape:cy="255.67263"
     inkscape:window-width="1920"
     inkscape:window-height="1016"
     inkscape:window-x="0"
     inkscape:window-y="0"
     inkscape:window-maximized="1"
     inkscape:current-layer="svg6" />
  <path
     d="M0 0 C1.37034264 -0.00461072 2.74068033 -0.0109648 4.11100769 -0.01890898 C7.87132532 -0.03560222 11.63123672 -0.02735619 15.39155579 -0.0149641 C19.44889067 -0.00591584 23.50615557 -0.01988222 27.56347656 -0.03088379 C35.50967095 -0.04867601 43.45571427 -0.04482592 51.4019146 -0.03323323 C57.8595898 -0.02420194 64.31722264 -0.02297358 70.77490234 -0.02732849 C72.15321433 -0.02824789 72.15321433 -0.02824789 73.55937099 -0.02918586 C75.42601142 -0.03046475 77.29265182 -0.03176161 79.15929222 -0.03307623 C96.66532143 -0.04448408 114.17126687 -0.0313651 131.67728233 -0.00987476 C146.70026143 0.00799641 161.72311689 0.00489236 176.74609375 -0.0135498 C194.18921444 -0.03495288 211.63226169 -0.04338543 229.07539368 -0.03110075 C230.93519083 -0.02982655 232.79498799 -0.02856906 234.65478516 -0.02732849 C235.56985557 -0.02671139 236.48492598 -0.02609429 237.42772579 -0.02545848 C243.87810465 -0.0220039 250.32843695 -0.02783627 256.77880859 -0.0372467 C264.63902689 -0.04846182 272.49908538 -0.04543694 280.35928535 -0.02412373 C284.37018759 -0.01360669 288.38082334 -0.00950246 292.39172363 -0.02272034 C296.06322397 -0.03463679 299.73421073 -0.0280946 303.40566444 -0.00681013 C305.36339495 -0.00022305 307.32116108 -0.01328694 309.27885437 -0.02703905 C320.13233555 0.07016134 320.13233555 0.07016134 324.71484375 4.50793457 C328.54940793 9.24942512 329.29021026 12.97861404 329.21820831 18.91320801 C329.22402208 19.74901335 329.22983584 20.58481869 329.23582578 21.44595146 C329.25045161 24.25336309 329.2365285 27.05990397 329.22277832 29.86730957 C329.22738621 31.89761808 329.23373836 33.92792326 329.2416873 35.95822144 C329.25841907 41.54274646 329.25011668 47.12699883 329.23774242 52.71152496 C329.22871004 58.73205941 329.24265266 64.75254624 329.25366211 70.77307129 C329.27044149 81.88731084 329.2689583 93.00147519 329.25801624 104.11571527 C329.24795766 114.3828576 329.2453255 124.649968 329.25010681 134.91711426 C329.25041235 135.59791369 329.25071789 136.27871312 329.25103269 136.98014283 C329.25227803 139.74366559 329.25355162 142.50718834 329.25487175 145.27071106 C329.26711029 171.1995665 329.25600988 197.12836644 329.23448416 223.05721331 C329.21550144 246.09810846 329.21719994 269.13891519 329.23632812 292.17980957 C329.25774237 318.06095741 329.26624237 343.9420562 329.25387907 369.82321167 C329.25259618 372.58172606 329.25134482 375.34024047 329.25010681 378.09875488 C329.2497905 378.77798138 329.24947419 379.45720788 329.2491483 380.15701699 C329.24459663 390.41820869 329.2499228 400.67936496 329.26002502 410.94055176 C329.27145332 422.60691325 329.26823575 434.27319059 329.24690205 445.93954277 C329.23637198 451.89467167 329.23230322 457.84962087 329.24549866 463.80474854 C329.2573877 469.25259427 329.25091749 474.70009314 329.22958845 480.14790726 C329.22510759 482.1222461 329.22742173 484.09661405 329.2370916 486.0709343 C329.24920377 488.74859694 329.23683338 491.42506167 329.21820831 494.10266113 C329.22757298 494.87452192 329.23693764 495.64638271 329.24658608 496.44163322 C329.17437981 501.61290012 327.95651713 504.51334858 324.71484375 508.50793457 C320.20794497 512.68506027 316.37857797 512.97156981 310.49609375 513.03918457 C304.1900995 511.83466881 299.73496569 506.81405712 295.37466431 502.40826416 C294.76517201 501.80048071 294.15567971 501.19269726 293.52771795 500.56649613 C291.49628586 498.53834587 289.47206282 496.50315359 287.44775391 494.46789551 C285.98918908 493.00876628 284.53018321 491.55007781 283.07077026 490.09179688 C279.11634782 486.13794784 275.1681187 482.17796625 271.22097445 478.21685314 C267.09257829 474.07594768 262.95851113 469.94071181 258.82504272 465.80487061 C251.00138084 457.97499455 243.18283085 450.14003456 235.36610544 442.30323434 C226.46561229 433.38038026 217.55943401 424.46320998 208.6527741 415.54651213 C190.33379865 397.20663611 172.02197272 378.85963539 153.71484375 360.50793457 C149.52994531 362.14693244 146.73691315 365.21918427 143.64208984 368.3536377 C143.03712866 368.95830116 142.43216747 369.56296463 141.80887413 370.18595123 C139.7805629 372.21565272 137.75949194 374.25241397 135.73828125 376.28918457 C134.28651618 377.74478744 132.83429548 379.199936 131.38165283 380.65466309 C128.2532929 383.78934882 125.1280684 386.92711618 122.00518799 390.06726074 C117.06930301 395.03015507 112.12583044 399.9854438 107.18115234 404.9395752 C96.68647011 415.45647288 86.20023681 425.98177674 75.71484375 436.50793457 C64.39589317 447.8708906 53.07553355 459.23241998 41.74539375 470.58422089 C36.82796423 475.5116306 31.91545673 480.44388047 27.00662231 485.37985229 C23.95471211 488.44665656 20.89868626 491.50933384 17.84151459 494.57089233 C16.42236897 495.99378952 15.00495708 497.41841824 13.58939362 498.84487915 C11.66003534 500.78862333 9.72463657 502.72614581 7.78759766 504.66223145 C7.22611715 505.23090187 6.66463665 505.7995723 6.08614159 506.38547516 C1.5484798 510.89919892 -1.32002192 512.79379393 -7.72265625 512.82043457 C-12.08145378 512.7276942 -14.90501128 512.478365 -18.28515625 509.50793457 C-22.81046719 504.35410822 -23.43209374 501.30068229 -23.41937733 494.59485245 C-23.42172956 493.76366248 -23.42408179 492.93247252 -23.4265053 492.07609499 C-23.43321981 489.26057636 -23.43273634 486.44510362 -23.43232727 483.62957764 C-23.43562437 481.60272518 -23.43934961 479.57587339 -23.44346875 477.54902244 C-23.45351435 471.95554952 -23.45720964 466.36208733 -23.45985806 460.76860666 C-23.46375352 454.74528958 -23.47333234 448.72198107 -23.48207092 442.69866943 C-23.50092098 428.82923142 -23.51109442 414.9597942 -23.5195316 401.09034707 C-23.52373578 394.23934524 -23.52895807 387.3883443 -23.53421613 380.53734321 C-23.55210746 357.09424488 -23.56710443 333.65114629 -23.57453632 310.20804214 C-23.57501108 308.73583495 -23.57548697 307.26362776 -23.57596399 305.79142056 C-23.57620036 305.06132448 -23.57643674 304.3312284 -23.57668028 303.57900819 C-23.5778815 299.87986125 -23.57909694 296.18071431 -23.58032227 292.48156738 C-23.58056242 291.7474551 -23.58080257 291.01334283 -23.58104999 290.25698472 C-23.58894487 266.44937541 -23.61237999 242.64181589 -23.64487821 218.83422833 C-23.67915943 193.67459669 -23.69888587 168.51499419 -23.70218056 143.35533881 C-23.70259812 140.59451531 -23.70307768 137.83369183 -23.70360374 135.07286835 C-23.70372694 134.39305585 -23.70385013 133.71324335 -23.70397705 133.01283048 C-23.7063112 122.06252463 -23.72198306 111.11227652 -23.74244559 100.16199126 C-23.76267993 89.15943941 -23.76785824 78.15694761 -23.75867496 67.15437916 C-23.75411535 61.1911662 -23.7561127 55.22814108 -23.7754364 49.26495361 C-23.79296243 43.80956495 -23.79215665 38.35450262 -23.77653911 32.899111 C-23.77414691 30.9219534 -23.77856929 28.94477382 -23.79036776 26.96764997 C-23.80538268 24.28615977 -23.79588669 21.60584144 -23.78014088 18.92438126 C-23.79036308 18.15137708 -23.80058529 17.3783729 -23.81111726 16.58194435 C-23.74447814 11.40520091 -22.52373295 8.51042271 -19.28515625 4.50793457 C-13.72802421 -0.87367976 -7.27517832 -0.05110558 0 0 Z "
     fill="#FD3018"
     transform="translate(103.28515625,-0.5079345703125)"
     id="path2"
     style="fill:#ff6600;fill-opacity:1" />
  <path
     d="M0 0 C21.54004531 -0.0934387 43.0800572 -0.16397697 64.62026405 -0.20724869 C74.62174886 -0.22787448 84.62310774 -0.25599545 94.62451172 -0.30175781 C103.34167482 -0.341625 112.05874673 -0.36743269 120.77599847 -0.37635398 C125.39181264 -0.38156892 130.00736591 -0.39382631 134.62309647 -0.42292023 C138.96839951 -0.45008746 143.31333439 -0.45844237 147.65871429 -0.45243073 C149.25264614 -0.45353038 150.8465904 -0.46147664 152.44044876 -0.4768219 C154.61957302 -0.49677132 156.7973136 -0.49192253 158.97647095 -0.48101807 C160.80438643 -0.48654882 160.80438643 -0.48654882 162.66922951 -0.49219131 C168.00865163 0.29682048 170.87991323 2.69775312 174.34353971 6.72467041 C176.35794112 10.70775927 176.55628116 14.04374551 176.50336456 18.40527344 C176.50917833 19.24107878 176.51499209 20.07688412 176.52098203 20.93801689 C176.53560786 23.74542851 176.52168475 26.5519694 176.50793457 29.359375 C176.51254246 31.38968351 176.51889461 33.41998869 176.52684355 35.45028687 C176.54357532 41.03481189 176.53527293 46.61906426 176.52289867 52.20359039 C176.51386629 58.22412484 176.52780891 64.24461167 176.53881836 70.26513672 C176.55559774 81.37937627 176.55411455 92.49354062 176.54317249 103.60778069 C176.53311391 113.87492303 176.53048175 124.14203343 176.53526306 134.40917969 C176.5355686 135.08997912 176.53587414 135.77077855 176.53618894 136.47220826 C176.53743428 139.23573102 176.53870787 141.99925377 176.540028 144.76277649 C176.55226654 170.69163193 176.54116613 196.62043187 176.51964041 222.54927874 C176.50065769 245.59017389 176.50235619 268.63098062 176.52148438 291.671875 C176.54289862 317.55302284 176.55139862 343.43412163 176.53903532 369.3152771 C176.53775243 372.07379149 176.53650107 374.8323059 176.53526306 377.59082031 C176.53494675 378.27004681 176.53463044 378.9492733 176.53430455 379.64908242 C176.52975288 389.91027412 176.53507905 400.17143039 176.54518127 410.43261719 C176.55660957 422.09897868 176.553392 433.76525602 176.5320583 445.4316082 C176.52152823 451.3867371 176.51745947 457.3416863 176.53065491 463.29681396 C176.54254395 468.7446597 176.53607374 474.19215857 176.5147447 479.63997269 C176.51026384 481.61431153 176.51257798 483.58867948 176.52224785 485.56299973 C176.53436002 488.24066237 176.52198963 490.9171271 176.50336456 493.59472656 C176.51272923 494.36658735 176.52209389 495.13844814 176.53174233 495.93369865 C176.45953606 501.10496555 175.24167338 504.00541401 172 508 C167.49310122 512.1771257 163.66373422 512.46363524 157.78125 512.53125 C154.15996849 511.83954454 152.04222588 510.07488925 149 508 C146.88232484 506.74513588 144.75562397 505.50542355 142.62185669 504.27812195 C118.2675175 490.06538311 95.81409991 473.68846579 74.125 455.6875 C73.24318448 454.96009377 72.36136895 454.23268754 71.45283175 453.4832387 C25.05244437 415.00241658 -1.53945191 373.71229986 -7.30648482 313.86526261 C-11.66369488 266.13174411 -10.79868765 218.03478754 -9.3125 170.1875 C-9.2488336 168.08495897 -9.18523348 165.98241593 -9.12169933 163.87987089 C-7.44912491 109.16245979 -4.39112314 54.56506316 0 0 Z "
     fill="#E61E14"
     transform="translate(256,0)"
     id="path4"
     style="fill:#d45500" />
</svg>
